<svg id="Calque_1" data-name="Calque 1" xmlns="http://www.w3.org/2000/svg" viewBox="0 0 1134.5901 1269.8889"><path d="M-48.3259,543.4134a63.536,63.536,0,0,0,95.2417,83.31h0a63.5206,63.5206,0,0,0-13.9476-88.7424A63.5207,63.5207,0,0,0-48.3259,543.4134Z" transform="translate(567.3611 122)" style="fill:#ff7519"/><path d="M-.3854,245.7566c-184.8668,0-334.7308,149.8641-334.7308,334.7308S-185.2522,915.2181-.3854,915.2181,334.3453,765.354,334.3453,580.4874h0C334.4,395.675,184.6238,245.811-.1885,245.7566H-.3854ZM117.2284,576.8651,111.05,593.2714,99.3307,625.0186a107.8266,107.8266,0,0,1-26.42,40.6962A112.5083,112.5083,0,0,1,45.4244,682.76L17.7255,694.6921l-19.6024,8.5227-186.2219,80.1138,70.3126-190.27,6.179-16.4063,11.7188-31.7472a109.095,109.095,0,0,1,26.6335-40.9092,113.0121,113.0121,0,0,1,27.2728-16.8324l27.4858-11.9318,19.8154-8.5228L187.754,386.5949Z" transform="translate(567.3611 122)" style="fill:#ff7519"/><path d="M567.229,598.3851l-72.0172-70.5257a501.4743,501.4743,0,0,0-118.466-265.4835V210.3872l-51.3495.4261A499.8042,499.8042,0,0,0,52.4554,91.0688V52.7164A56.2837,56.2837,0,0,0-5.7415-1.5869,56.2838,56.2838,0,0,0-60.0448,52.7164V91.0688a501.3436,501.3436,0,0,0-265.27,112.7132H-383.27l.4261,55.6109A501.51,501.51,0,0,0-505.9973,548.527l-61.3638,61.3638,66.4774,64.9859A502.0583,502.0583,0,0,0-390.088,915.005v58.5939l57.3154-.6392A500.8179,500.8179,0,0,0-52.3743,1092.4911l55.3978,55.3978L58.8475,1091a501.1978,501.1978,0,0,0,265.91-118.4661h59.8722L383.99,911.809a502.2583,502.2583,0,0,0,108.665-238.85ZM3.45,950.3743c-203.6946,0-368.8217-165.1271-368.8217-368.8217S-200.2451,212.7309,3.45,212.7309,372.2712,377.858,372.2712,581.5526h0C372.0582,785.2462,206.93,950.3743,3.45,950.3743Z" transform="translate(567.3611 122)" style="fill:#ff7519"/><path d="M99.1175-122H-100.3147c-40.9092,0-73.9348,37.9262-73.9348,84.8013h0c0,46.8751,33.2387,84.8013,73.9348,84.8013H98.9045c40.9092,0,73.9347-37.9262,73.9347-84.8013h0C173.2654-83.8607,140.0265-122,99.1175-122ZM142.37-35.068c0,33.0256-27.2727,59.8723-61.1507,59.8723H-83.2692c-33.6648,0-61.1507-26.8467-61.1507-59.8723h0c0-33.0256,27.2727-59.8723,61.1507-59.8723H81.22c33.878,0,61.1506,26.8466,61.1506,59.8723Z" transform="translate(567.3611 122)" style="fill:#ff7519"/></svg>