<?xml version="1.0" encoding="utf-8"?>
<!-- Generator: Adobe Illustrator 24.2.1, SVG Export Plug-In . SVG Version: 6.00 Build 0)  -->
<svg version="1.1" id="Calque_1" xmlns="http://www.w3.org/2000/svg" xmlns:xlink="http://www.w3.org/1999/xlink" x="0px" y="0px"
	 viewBox="0 0 2156.6 596" style="enable-background:new 0 0 2156.6 596;" xml:space="preserve">
<style type="text/css">
	.st0{fill:#FF7519;}
	.st1{font-family:'ArialMT';}
	.st2{font-size:189.0496px;}
	.st3{letter-spacing:9;}
	.st4{letter-spacing:6;}
	.st5{letter-spacing:-10;}
	.st6{letter-spacing:-11;}
</style>
<text transform="matrix(1 0 0 1 553.1821 304.0353)" class="st0 st1 st2 st3">PO</text>
<text transform="matrix(1 0 0 1 846.3646 304.0353)" class="st0 st1 st2 st4">R</text>
<text transform="matrix(1 0 0 1 989.4946 304.0353)" class="st0 st1 st2 st5">T</text>
<text transform="matrix(1 0 0 1 1100.9622 304.0353)" class="st0 st1 st2 st3">AI</text>
<text transform="matrix(1 0 0 1 1299.6196 304.0353)" class="st0 st1 st2 st6">L</text>
<g>
	<text transform="matrix(1 0 0 1 1407.764 304.0353)" class="st0 st1 st2 st3"> S</text>
</g>
<text transform="matrix(1 0 0 1 1606.4211 304.0353)" class="st0 st1 st2 st5">T</text>
<text transform="matrix(1 0 0 1 1717.889 304.0353)" class="st0 st1 st2 st3">AGE</text>
<path class="st0" d="M243.6,312.3c-9.7,13.3-6.7,32,6.7,41.6c11.6,8.4,27.6,7.4,38-2.5l0,0c9.7-13.3,6.8-32-6.5-41.6
	C270.1,301.3,254,302.3,243.6,312.3L243.6,312.3z"/>
<path class="st0" d="M266.1,172.6c-86.8,0-157.1,70.3-157.1,157.1s70.3,157.1,157.1,157.1s157.1-70.3,157.1-157.1l0,0l0,0
	C423.2,243,352.9,172.6,266.1,172.6C266.2,172.6,266.2,172.6,266.1,172.6L266.1,172.6z M321.3,328l-2.9,7.7l-5.5,14.9
	c-2.6,7.2-6.9,13.8-12.4,19.1c-3.9,3.3-8.2,6-12.9,8l-13,5.6l-9.2,4L178,424.9l33-89.3l2.9-7.7l5.5-14.9c2.7-7.3,6.9-13.8,12.5-19.2
	c3.9-3.2,8.2-5.9,12.8-7.9l12.9-5.6l9.3-4l87.5-37.6L321.3,328z"/>
<path class="st0" d="M532.5,338.1L498.7,305c-5.8-46.1-25.2-89.5-55.6-124.6V156l-24.1,0.2c-36-31.3-80.7-50.9-128.1-56.2V82
	c-0.5-14.6-12.7-26-27.3-25.5c-13.9,0.5-25,11.6-25.5,25.5v18c-45.8,5.1-89.1,23.5-124.5,52.9H86.4l0.2,26.1
	C53.3,216.9,33,264.4,28.8,314.7L0,343.5L31.2,374c7,41.5,24.9,80.5,52,112.7v27.5l26.9-0.3c37,31.9,83,51.5,131.6,56.1l26,26
	l26.2-26.7c46.2-5.8,89.6-25.1,124.8-55.6h28.1l-0.3-28.5c26.6-32.2,44.2-70.9,51-112.1L532.5,338.1z M267.9,503.3
	c-95.6,0-173.1-77.5-173.1-173.1s77.5-173.1,173.1-173.1S441,234.6,441,330.2v0l0,0C440.9,425.8,363.4,503.3,267.9,503.3z"/>
<path class="st0" d="M312.8,0h-93.6c-19.2,0-34.7,17.8-34.7,39.8l0,0c0,22,15.6,39.8,34.7,39.8h93.5c19.2,0,34.7-17.8,34.7-39.8l0,0
	C347.6,17.9,332,0,312.8,0z M333.1,40.8c0,15.5-12.8,28.1-28.7,28.1h-77.2c-15.8,0-28.7-12.6-28.7-28.1l0,0
	c0-15.5,12.8-28.1,28.7-28.1h77.2C320.3,12.7,333.1,25.3,333.1,40.8L333.1,40.8z"/>
<g>
	<path class="st0" d="M578.9,486.8h-29.7l66.9-130.9h35.7l23.4,130.9h-29.7l-15.9-101h-1L578.9,486.8z M585.7,435.3h70.1l-3.6,21.6
		H582L585.7,435.3z"/>
	<path class="st0" d="M764.3,486.8h-47L739,355.9h46.2c13.2,0,24.1,2.7,32.8,8.1c8.7,5.4,14.9,13.1,18.4,23
		c3.6,10,4.2,21.9,1.9,35.7c-2.2,13.4-6.6,24.9-13.2,34.5c-6.6,9.6-15.1,16.9-25.4,22C789.4,484.3,777.6,486.8,764.3,486.8z
		 M748.9,463.1H766c8.2,0,15.4-1.5,21.6-4.6c6.2-3.1,11.3-7.8,15.3-14.2c4-6.4,6.8-14.6,8.4-24.5c1.6-9.5,1.6-17.1-0.2-23
		c-1.7-5.9-5.1-10.2-10.2-13c-5.1-2.7-11.7-4.1-19.8-4.1h-18.3L748.9,463.1z"/>
	<path class="st0" d="M896.2,355.9h34.1l21.5,88h1.5l50.6-88h34.1l-21.7,130.9h-26.8l14.2-85.2h-1.1l-47.9,84.6h-18.3l-19.7-84.9
		h-1.1l-14.3,85.5h-26.8L896.2,355.9z"/>
	<path class="st0" d="M1114.8,355.9l-21.7,130.9h-27.7l21.7-130.9H1114.8z"/>
	<path class="st0" d="M1273.4,355.9l-21.7,130.9h-23.9l-43.2-82.4h-1l-13.7,82.4h-27.7l21.7-130.9h24.3l42.9,82.3h1.2l13.6-82.3
		H1273.4z"/>
</g>
</svg>
