<?xml version="1.0" encoding="utf-8"?>
<!-- Generator: Adobe Illustrator 24.2.1, SVG Export Plug-In . SVG Version: 6.00 Build 0)  -->
<svg version="1.1" id="Calque_1" xmlns="http://www.w3.org/2000/svg" xmlns:xlink="http://www.w3.org/1999/xlink" x="0px" y="0px"
	 viewBox="0 0 531.8 596.1" style="enable-background:new 0 0 531.8 596.1;" xml:space="preserve">
<style type="text/css">
	.st0{fill:#0193F0;}
</style>
<path class="st0" d="M265.3,184.7c-87.7,0.3-157.3,72.1-156.6,158.4c0.7,84.1,68.8,155.5,157.2,155.7c89.1-0.3,157.8-73.1,157-158.5
	C422.2,255.4,353,184.5,265.3,184.7z M353,251.5c-13.5,36.4-27,72.8-40.5,109.1c-2.1,5.6-5.1,10.7-8.9,15.3
	c-4.4,5.4-10.1,9-16.4,11.7c-14.9,6.5-29.7,12.9-44.6,19.3c-20.2,8.7-40.5,17.4-60.7,26.1c-1.2,0.5-2.3,1-3.5,1.5
	c-0.4-0.9,0.1-1.5,0.4-2.1c13.4-36.2,26.8-72.5,40.2-108.7c1.2-3.4,2.8-6.6,4.6-9.7c4.8-8.1,12.1-14.4,20.9-18
	c12.2-5.3,24.5-10.6,36.7-15.8c23.4-10.1,46.8-20.1,70.2-30.1c0.7-0.4,1.4-0.7,2.2-0.7C353.8,250.1,353.3,250.8,353,251.5z"/>
<path class="st0" d="M293.9,344.1c0,3.1-0.5,6.3-1.5,9.2c-1.7,5.7-5.7,10.5-11.2,13.1c-14.7,7.5-32.7,1.6-40.2-13.1
	c-4.8-9.4-4.3-20.6,1.3-29.5c0.7-1.1,1.5-2.1,2.5-2.9c8.8-7,18.7-8.9,29.3-5.1c10.7,3.8,17.1,11.7,19.3,22.8
	C293.8,340.5,294,342.3,293.9,344.1z"/>
<path class="st0" d="M531.2,337.1c-2.3-2.2-4.6-4.5-6.9-6.7c-8.2-8-16.3-16-24.5-24c-1-1-1.7-2.3-1.8-3.7c-0.5-3.7-1.1-7.4-1.8-11.1
	c-7.2-39.2-24.3-75.9-49.6-106.6c-1.3-1.5-3-2.9-3.6-4.7c-0.6-1.8-0.2-3.9-0.2-5.9c0-5.6,0-11.2,0-16.8c0-1.1-0.2-1.6-1.5-1.5
	c-6.9,0.1-13.8,0.1-20.6,0.2c-1.3,0.1-2.7-0.4-3.6-1.4c-16.9-14.5-35.8-26.5-56.1-35.6c-21.7-9.7-44.7-16.2-68.3-19
	c-2.1-0.3-2.1-0.3-2.1-2.5c0-5.4,0-10.9,0-16.3c0-1.8,0-1.8,1.8-1.8c6.5,0,13,0,19.4,0c1.9,0,3.8-0.1,5.7-0.4
	c9.1-1.6,17.2-6.9,22.1-14.8c9.3-14.4,10.2-29.7,2.6-44.9C335.7,6.7,324.9-0.1,310.1,0c-29.8,0.1-59.7,0-89.5,0
	c-2.5,0-5,0.2-7.4,0.6c-9.8,1.9-17.2,7.5-22.4,15.9c-6.1,9.7-7.9,20.3-5.9,31.5c1.4,8.6,5.5,16.5,11.8,22.5
	c5.9,5.9,13.9,9.2,22.3,9.1c5.8,0,11.5,0,17.3,0c1,0,1.7,0.1,1.6,1.4c-0.3,5.7-0.1,11.3-0.2,17c0,1.4,0.2,1.9-2,2.2
	c-9.2,1.1-18.3,2.7-27.3,4.9c-34.3,8.3-66.3,24.2-93.6,46.5c-1,0.8-2.2,1.3-3.5,1.2c-7.4-0.1-14.9,0-22.3,0c-0.5,0-1,0-1.4,0
	c-1.2-0.2-1.5,0.5-1.5,1.6c0,0.3,0,0.6,0,1c0.1,7.1,0.1,14.2,0.2,21.3c0.1,1.4-0.4,2.8-1.4,3.9c-19,21.9-33.7,47.2-43.5,74.5
	c-6.7,18.7-11,38.1-12.7,57.9c-0.1,1.2-0.7,2.3-1.6,3c-8.4,8.4-16.7,16.7-25.1,25.1c-0.3,0.3-0.7,0.7-1,1c-1.2,1.2-1.2,1.2-0.1,2.4
	c0.6,0.6,1.1,1.1,1.7,1.7c9,8.8,17.9,17.6,26.9,26.3c0.9,0.9,1.5,2,1.7,3.3c1,6.1,2.4,12.2,3.9,18.3c8.6,33.2,24.4,64.2,46.2,90.7
	c1,1.2,1.6,2.7,1.5,4.3c-0.1,7.4,0,14.9,0,22.3c0,0.6,0,1.1,0,1.7c0,0.7,0.3,1,1,1c1,0,2.1,0,3.1,0c6.8-0.1,13.6-0.2,20.4-0.3
	c1.5-0.1,3,0.5,4.1,1.5c14.7,12.5,30.9,23.1,48.2,31.6c25.1,12.3,52.2,20.1,80,22.9c1.2,0.1,2.3,0.7,3.1,1.5c7,7,14,14,21,21
	c1.1,1.1,2.2,2.3,3.7,3.8c0.5-0.7,0.8-1.2,1.2-1.6c7.8-8,15.7-16,23.5-24c0.8-0.9,1.9-1.5,3.1-1.6c6-0.7,12-1.7,18-3
	c38-8.1,73.5-25.4,103.1-50.6c1.2-1.1,2.8-1.7,4.5-1.7c7.8,0.1,15.5,0,23.3,0c2.7,0,2.3-0.2,2.3-2.4c-0.1-7.9-0.1-15.8-0.2-23.7
	c-0.1-1.6,0.5-3.1,1.5-4.3c10.6-13,19.8-27.2,27.3-42.2c10.5-20.7,17.8-42.9,21.7-65.7c0.2-1.5,1-2.9,2.1-3.9
	c8.5-8.4,16.9-16.8,25.3-25.2c2.4-2.4,4.7-4.8,7.1-7.1C531.9,338.3,532,337.9,531.2,337.1z M235.6,69c-1.2,0-2.3,0-3.5,0
	c-2.3,0-4.7,0-7-0.1c-11.9-0.5-22.2-8.3-26-19.5c-5.2-16,5-33,22.1-36.1c2-0.3,4-0.5,6-0.5c0.1,0,0.3,0,0.4,0c0,0,0,0,0,0
	c12.6,0,25.3,0,37.9,0v0c6.5,0,13,0,19.5-0.1c6.5,0,13.1,0,19.6,0.1c10.8,0.2,19.3,5.1,24.6,14.6c9.4,16.9-0.8,37.5-20.1,41
	c-2,0.3-4,0.5-6,0.5c-0.1,0-0.2,0-0.3,0c0,0-0.1,0-0.1,0c-2.3,0-4.6,0-6.9,0c-2.4,0-4.7,0-7.1,0.1c-0.2,0-0.4,0-0.5,0
	c-1.3,0.1-2.5-0.6-3.2-1.7c-5.1-6.9-12.9-10.6-20.9-10.8c-5.4,0-10.8,1.7-15.5,5.1c-2.1,1.6-4,3.4-5.6,5.5c-0.7,1.2-2,1.8-3.4,1.8
	c-0.2,0-0.4,0-0.6,0C237.8,69,236.7,69,235.6,69z M264.9,514.8C169.4,514.7,92,437.3,92,341.9c0.1-96.8,79-173.7,174.2-173
	c95,0.7,172.1,78.2,171.8,173.5C437.8,437.3,360,515,264.9,514.8z"/>
</svg>
